<svg width="32" height="32" viewBox="0 0 32 32" fill="none" xmlns="http://www.w3.org/2000/svg">
<path fill-rule="evenodd" clip-rule="evenodd" d="M25 16C25 20.9706 20.9706 25 16 25C11.0294 25 7 20.9706 7 16C7 11.0294 11.0294 7 16 7C20.9706 7 25 11.0294 25 16ZM28 16C28 22.6274 22.6274 28 16 28C9.37258 28 4 22.6274 4 16C4 9.37258 9.37258 4 16 4C22.6274 4 28 9.37258 28 16ZM17.5 12C17.5 11.1716 16.8284 10.5 16 10.5C15.1716 10.5 14.5 11.1716 14.5 12V15.4893C14.5 16.4591 15.0608 17.3414 15.9389 17.753L19.3633 19.3582C20.1135 19.7098 21.0066 19.3868 21.3582 18.6367C21.7098 17.8865 21.3868 16.9934 20.6367 16.6418L17.5 15.1715V12Z" fill="#C0C0C0"/>
</svg>
