<svg width="32" height="32" viewBox="0 0 32 32" fill="none" xmlns="http://www.w3.org/2000/svg">
<path fill-rule="evenodd" clip-rule="evenodd" d="M17.3158 5.55036C16.5096 5.05125 15.4903 5.05125 14.6841 5.55036L4.71043 11.7245C4.00605 12.1606 3.78852 13.0851 4.22456 13.7895C4.66061 14.4938 5.58511 14.7114 6.28949 14.2753L16 8.26408L25.7104 14.2753C26.4148 14.7114 27.3393 14.4938 27.7754 13.7895C28.2114 13.0851 27.9939 12.1606 27.2895 11.7245L17.3158 5.55036ZM9.99996 14.9999C9.17154 14.9999 8.49996 15.6715 8.49996 16.4999V24.4999C8.49996 25.3284 9.17154 25.9999 9.99996 25.9999C10.8284 25.9999 11.5 25.3284 11.5 24.4999V16.4999C11.5 15.6715 10.8284 14.9999 9.99996 14.9999ZM16 14.9999C15.1715 14.9999 14.5 15.6715 14.5 16.4999V24.4999C14.5 25.3284 15.1715 25.9999 16 25.9999C16.8284 25.9999 17.5 25.3284 17.5 24.4999V16.4999C17.5 15.6715 16.8284 14.9999 16 14.9999ZM20.5 16.4999C20.5 15.6715 21.1715 14.9999 22 14.9999C22.8284 14.9999 23.5 15.6715 23.5 16.4999V24.4999C23.5 25.3284 22.8284 25.9999 22 25.9999C21.1715 25.9999 20.5 25.3284 20.5 24.4999V16.4999Z" fill="#343434"/>
</svg>
