<svg width="33" height="32" viewBox="0 0 33 32" fill="none" xmlns="http://www.w3.org/2000/svg">
<path d="M21.6747 11.8903C21.9232 12.1401 22.3356 12.1401 22.5692 11.8903L23.8114 10.5912C24.0748 10.3414 24.0599 9.89166 23.7816 9.62185C22.8054 8.76687 21.6705 8.11476 20.4423 7.70316L20.8349 5.80445C20.9194 5.38973 20.6113 5 20.1989 5H17.7938C17.6435 5.00162 17.4982 5.05512 17.3825 5.15153C17.2667 5.24795 17.1873 5.38143 17.1577 5.52964L16.8099 7.21849C13.6097 7.38337 10.8966 9.01726 10.8966 12.365C10.8966 15.263 13.1377 16.5071 15.508 17.3616C17.7491 18.221 18.9367 18.5408 18.9367 19.7499C18.9367 20.9941 17.754 21.7236 16.0049 21.7236C14.4147 21.7236 12.7451 21.189 11.4531 19.8848C11.3931 19.8244 11.3219 19.7765 11.2434 19.7438C11.165 19.7111 11.0809 19.6942 10.996 19.6942C10.911 19.6942 10.8269 19.7111 10.7485 19.7438C10.6701 19.7765 10.5988 19.8244 10.5388 19.8848L9.19711 21.2339C9.07088 21.3613 9 21.5338 9 21.7136C9 21.8934 9.07088 22.0659 9.19711 22.1933C10.2406 23.2276 11.5624 23.9771 13.0691 24.3918L12.7014 26.1756C12.6169 26.5903 12.92 26.975 13.3325 26.98L15.7425 27C15.8945 27.0007 16.0421 26.9482 16.1599 26.8516C16.2778 26.755 16.3586 26.6202 16.3885 26.4704L16.7363 24.7765C20.5865 24.5167 22.9319 22.3831 22.9319 19.2703C22.9319 16.4022 20.5964 15.193 17.764 14.2087C16.144 13.6041 14.7427 13.1894 14.7427 11.9453C14.7427 10.7361 16.0496 10.2564 17.3615 10.2564C19.0311 10.2564 20.6361 10.9509 21.6846 11.9003L21.6747 11.8903Z" fill="#343434"/>
</svg>
